<svg xmlns="http://www.w3.org/2000/svg" xmlns:xlink="http://www.w3.org/1999/xlink" width="500" zoomAndPan="magnify" viewBox="0 0 375 374.999991" height="500" preserveAspectRatio="xMidYMid meet" version="1.0"><defs><clipPath id="5f2dc935cd"><path d="M 0 1.328125 L 373.5 1.328125 L 373.5 374.828125 L 0 374.828125 Z M 0 1.328125 " clip-rule="nonzero"/></clipPath></defs><path fill="#0c487f" d="M 204.6875 132.070312 L 204.6875 162.433594 L 242.917969 162.433594 L 237.566406 203.96875 L 204.6875 203.96875 L 204.6875 299.152344 L 162.992188 299.152344 L 162.992188 203.96875 L 127.28125 203.96875 L 127.28125 162.433594 L 162.992188 162.433594 L 162.992188 132.070312 C 162.992188 99.1875 189.582031 77.003906 222.464844 77.003906 C 236.9375 77.003906 246.0625 79.207031 246.0625 79.207031 L 246.0625 114.292969 L 222.464844 114.292969 C 212.710938 114.292969 204.6875 122.316406 204.6875 132.070312 Z M 204.6875 132.070312 " fill-opacity="1" fill-rule="nonzero"/><g clip-path="url(#5f2dc935cd)"><path fill="#0c487f" d="M 186.75 374.828125 C 83.855469 374.828125 0 291.128906 0 188.078125 C 0 85.027344 83.855469 1.328125 186.75 1.328125 C 289.800781 1.328125 373.5 85.1875 373.5 188.078125 C 373.5 290.972656 289.800781 374.828125 186.75 374.828125 Z M 186.75 11.554688 C 89.363281 11.554688 10.226562 90.691406 10.226562 188.078125 C 10.226562 285.464844 89.363281 364.601562 186.75 364.601562 C 284.136719 364.601562 363.273438 285.464844 363.273438 188.078125 C 363.273438 90.691406 284.136719 11.554688 186.75 11.554688 Z M 186.75 11.554688 " fill-opacity="1" fill-rule="nonzero"/></g></svg>