<svg xmlns="http://www.w3.org/2000/svg" xmlns:xlink="http://www.w3.org/1999/xlink" width="500" zoomAndPan="magnify" viewBox="0 0 375 374.999991" height="500" preserveAspectRatio="xMidYMid meet" version="1.0"><defs><clipPath id="86109432f4"><path d="M 0 0.886719 L 373.5 0.886719 L 373.5 374.386719 L 0 374.386719 Z M 0 0.886719 " clip-rule="nonzero"/></clipPath></defs><path fill="#0c487f" d="M 235.523438 80.339844 L 138.136719 80.339844 C 105.882812 80.339844 79.609375 106.613281 79.609375 138.867188 L 79.609375 236.253906 C 79.609375 268.507812 105.882812 294.78125 138.136719 294.78125 L 235.523438 294.78125 C 267.773438 294.78125 294.046875 268.507812 294.046875 236.253906 L 294.046875 139.023438 C 294.046875 106.613281 267.773438 80.339844 235.523438 80.339844 Z M 275.640625 236.410156 C 275.640625 258.59375 257.707031 276.53125 235.523438 276.53125 L 138.136719 276.53125 C 115.953125 276.53125 97.859375 258.59375 97.859375 236.410156 L 97.859375 139.023438 C 97.859375 116.839844 115.953125 98.746094 138.136719 98.746094 L 235.523438 98.746094 C 257.707031 98.746094 275.640625 116.683594 275.640625 139.023438 Z M 275.640625 236.410156 " fill-opacity="1" fill-rule="nonzero"/><path fill="#0c487f" d="M 258.492188 128.953125 C 258.492188 136.191406 252.671875 142.171875 245.277344 142.171875 C 238.039062 142.171875 232.0625 136.347656 232.0625 128.953125 C 232.0625 121.71875 237.882812 115.738281 245.277344 115.738281 C 252.671875 115.894531 258.492188 121.71875 258.492188 128.953125 Z M 258.492188 128.953125 " fill-opacity="1" fill-rule="nonzero"/><path fill="#0c487f" d="M 186.75 133.046875 C 156.699219 133.046875 132.15625 157.589844 132.15625 187.636719 C 132.15625 217.6875 156.699219 242.230469 186.75 242.230469 C 216.800781 242.230469 241.34375 217.6875 241.34375 187.636719 C 241.34375 157.589844 216.957031 133.046875 186.75 133.046875 Z M 186.75 223.824219 C 166.769531 223.824219 150.5625 207.621094 150.5625 187.636719 C 150.5625 167.65625 166.769531 151.453125 186.75 151.453125 C 206.730469 151.453125 222.9375 167.65625 222.9375 187.636719 C 222.9375 207.621094 206.730469 223.824219 186.75 223.824219 Z M 186.75 223.824219 " fill-opacity="1" fill-rule="nonzero"/><g clip-path="url(#86109432f4)"><path fill="#0c487f" d="M 186.75 374.386719 C 83.855469 374.386719 0 290.6875 0 187.636719 C 0 84.746094 83.855469 0.886719 186.75 0.886719 C 289.800781 0.886719 373.5 84.746094 373.5 187.636719 C 373.5 290.6875 289.800781 374.386719 186.75 374.386719 Z M 186.75 11.113281 C 89.363281 11.113281 10.226562 90.25 10.226562 187.636719 C 10.226562 285.027344 89.363281 364.164062 186.75 364.164062 C 284.136719 364.164062 363.273438 285.027344 363.273438 187.636719 C 363.273438 90.25 284.136719 11.113281 186.75 11.113281 Z M 186.75 11.113281 " fill-opacity="1" fill-rule="nonzero"/></g></svg>