<svg xmlns="http://www.w3.org/2000/svg" xmlns:xlink="http://www.w3.org/1999/xlink" width="500" zoomAndPan="magnify" viewBox="0 0 375 374.999991" height="500" preserveAspectRatio="xMidYMid meet" version="1.0"><defs><clipPath id="aec2fd6287"><path d="M 0 1.195312 L 373.5 1.195312 L 373.5 374.695312 L 0 374.695312 Z M 0 1.195312 " clip-rule="nonzero"/></clipPath></defs><g clip-path="url(#aec2fd6287)"><path fill="#0c487f" d="M 186.75 1.1875 C 289.890625 1.1875 373.507812 84.804688 373.507812 187.945312 C 373.507812 291.082031 289.890625 374.703125 186.75 374.703125 C 83.609375 374.703125 -0.0078125 291.082031 -0.0078125 187.945312 C -0.0078125 84.804688 83.609375 1.1875 186.75 1.1875 Z M 109.789062 268.308594 L 136.109375 268.308594 L 136.109375 164.027344 L 109.789062 164.027344 Z M 191.976562 213.355469 C 191.976562 196.90625 199.726562 183.71875 217.574219 183.71875 C 235.199219 183.71875 240.90625 197.925781 240.90625 213.355469 L 240.90625 268.320312 L 267.070312 268.320312 L 267.070312 201.136719 C 267.070312 177.273438 255.507812 160.585938 230.304688 160.585938 C 218.859375 160.585938 205.644531 166.582031 200.054688 176.996094 L 191.976562 191.730469 L 191.976562 164.027344 L 167.066406 164.027344 L 167.066406 268.308594 L 191.976562 268.308594 Z M 200.59375 213.355469 L 200.59375 276.925781 L 158.449219 276.925781 L 158.449219 155.410156 L 200.59375 155.410156 L 200.59375 163.167969 C 208.914062 155.71875 219.128906 151.964844 230.304688 151.964844 C 260.269531 151.964844 275.6875 172.5 275.6875 201.136719 L 275.6875 276.902344 L 232.289062 276.910156 L 232.289062 213.355469 C 232.289062 202.992188 230.003906 192.335938 217.574219 192.335938 C 204.613281 192.335938 200.59375 201.765625 200.59375 213.355469 Z M 122.785156 140.632812 C 131.90625 140.632812 139.140625 133.175781 139.140625 124.101562 C 139.140625 115.023438 131.90625 107.582031 122.785156 107.582031 C 113.664062 107.582031 106.429688 115.023438 106.429688 124.101562 C 106.429688 133.175781 113.65625 140.632812 122.785156 140.632812 Z M 122.785156 149.25 C 108.941406 149.25 97.8125 137.894531 97.8125 124.101562 C 97.8125 110.308594 108.941406 98.960938 122.785156 98.960938 C 136.621094 98.960938 147.757812 110.308594 147.757812 124.101562 C 147.757812 137.886719 136.621094 149.25 122.785156 149.25 Z M 101.167969 276.925781 L 101.167969 155.410156 L 144.730469 155.410156 L 144.730469 276.925781 Z M 186.75 9.8125 C 88.367188 9.8125 8.613281 89.5625 8.613281 187.945312 C 8.613281 286.324219 88.367188 366.074219 186.75 366.074219 C 285.132812 366.074219 364.886719 286.324219 364.886719 187.945312 C 364.886719 89.5625 285.132812 9.8125 186.75 9.8125 Z M 186.75 9.8125 " fill-opacity="1" fill-rule="nonzero"/></g></svg>